<svg xmlns="http://www.w3.org/2000/svg" xmlns:xlink="http://www.w3.org/1999/xlink" viewBox="0 0 131 178"><defs><style>.cls-1{fill:url(#New_Gradient_Swatch_3);}</style><linearGradient id="New_Gradient_Swatch_3" y1="89" x2="131" y2="89" gradientUnits="userSpaceOnUse"><stop offset="0" stop-color="#29abe2"/><stop offset="0.05" stop-color="#2faae7"/><stop offset="0.23" stop-color="#3ba9f1"/><stop offset="0.39" stop-color="#3fa9f5"/><stop offset="0.51" stop-color="#298ed4"/><stop offset="0.62" stop-color="#1778b9"/><stop offset="0.74" stop-color="#0a68a6"/><stop offset="0.87" stop-color="#035e9b"/><stop offset="0.99" stop-color="#005b97"/></linearGradient></defs><title>Asset 18</title><g id="Layer_2" data-name="Layer 2"><g id="Layer_2-2" data-name="Layer 2"><path class="cls-1" d="M131,36V164a14,14,0,0,1-14,14H14A14,14,0,0,1,0,164V36A14,14,0,0,1,14,22h8.5V33.5h-10v135h106V33.5h-11V22H117A14,14,0,0,1,131,36ZM97,20V36a3,3,0,0,1-3,3H37a3,3,0,0,1-3-3V20a3,3,0,0,1,3-3H50.35A13,13,0,0,1,50,14C50,6.27,56.72,0,65,0S80,6.27,80,14a13,13,0,0,1-.35,3H94A3,3,0,0,1,97,20ZM61.28,17h7.44A4.21,4.21,0,0,0,70,14a5,5,0,0,0-10,0A4.21,4.21,0,0,0,61.28,17ZM42.5,91v24h-24V91ZM39,94.5H22v17H39ZM106,92H56v4h50ZM90,103H56v4H90ZM42.5,127v24h-24V127ZM39,130.5H22v17H39Zm67-2.5H56v4h50ZM90,139H56v4H90ZM42.5,65.31V79h-24V55H36.82l-2.55,3.5H22v17H39V68.38ZM106,56H56v4h50ZM90,67H56v4H90ZM27.35,63.22a.9.9,0,0,0-1.24,1.23,38.7,38.7,0,0,0,2.45,3.73l1.33,1.76,1.38,1.74h0a.81.81,0,0,0,.19.18,1,1,0,0,0,1.33-.24l.07-.11c1.09-1.59,2.17-3.17,3.32-4.7a48.76,48.76,0,0,1,3.71-4.4,62.86,62.86,0,0,1,8.69-7.59,1,1,0,0,0,.33-1.17,1,1,0,0,0-1.28-.55l-.21.08A30.22,30.22,0,0,0,42,56.06a38.25,38.25,0,0,0-4.83,3.8c-.74.71-1.47,1.44-2.18,2.19s-1.35,1.56-2,2.37A13.66,13.66,0,0,0,31.3,67a5.06,5.06,0,0,0-.16,3.5l1.59-.17h0a6.35,6.35,0,0,0-.64-2.17A9.68,9.68,0,0,0,31,66.42a13,13,0,0,0-1.37-1.51,10,10,0,0,0-1.71-1.36Z"/></g></g></svg>